<svg width="206" height="38" viewBox="0 0 206 38" fill="none" xmlns="http://www.w3.org/2000/svg">
<g clip-path="url(#clip0_1_1095)">
<path d="M15.125 9.25V32H10.4531V9.25H15.125ZM22.125 9.25V12.9219H3.5625V9.25H22.125ZM28.9062 8V32H24.4062V8H28.9062ZM28.2656 22.9531H27.0312C27.0417 21.776 27.1979 20.6927 27.5 19.7031C27.8021 18.7031 28.2344 17.8385 28.7969 17.1094C29.3594 16.3698 30.0312 15.7969 30.8125 15.3906C31.6042 14.9844 32.4792 14.7812 33.4375 14.7812C34.2708 14.7812 35.026 14.901 35.7031 15.1406C36.3906 15.3698 36.9792 15.7448 37.4688 16.2656C37.9688 16.776 38.3542 17.4479 38.625 18.2812C38.8958 19.1146 39.0312 20.125 39.0312 21.3125V32H34.5V21.2812C34.5 20.5312 34.3906 19.9427 34.1719 19.5156C33.9635 19.0781 33.6562 18.7708 33.25 18.5938C32.8542 18.4062 32.3646 18.3125 31.7812 18.3125C31.1354 18.3125 30.5833 18.4323 30.125 18.6719C29.6771 18.9115 29.3177 19.2448 29.0469 19.6719C28.776 20.0885 28.5781 20.5781 28.4531 21.1406C28.3281 21.7031 28.2656 22.3073 28.2656 22.9531ZM50.2344 32.3125C48.9219 32.3125 47.7448 32.1042 46.7031 31.6875C45.6615 31.2604 44.776 30.6719 44.0469 29.9219C43.3281 29.1719 42.776 28.3021 42.3906 27.3125C42.0052 26.3125 41.8125 25.25 41.8125 24.125V23.5C41.8125 22.2188 41.9948 21.0469 42.3594 19.9844C42.724 18.9219 43.2448 18 43.9219 17.2188C44.6094 16.4375 45.4427 15.8385 46.4219 15.4219C47.401 14.9948 48.5052 14.7812 49.7344 14.7812C50.9323 14.7812 51.9948 14.9792 52.9219 15.375C53.849 15.7708 54.625 16.3333 55.25 17.0625C55.8854 17.7917 56.3646 18.6667 56.6875 19.6875C57.0104 20.6979 57.1719 21.8229 57.1719 23.0625V24.9375H43.7344V21.9375H52.75V21.5938C52.75 20.9688 52.6354 20.4115 52.4062 19.9219C52.1875 19.4219 51.8542 19.026 51.4062 18.7344C50.9583 18.4427 50.3854 18.2969 49.6875 18.2969C49.0938 18.2969 48.5833 18.4271 48.1562 18.6875C47.7292 18.9479 47.3802 19.3125 47.1094 19.7812C46.849 20.25 46.651 20.8021 46.5156 21.4375C46.3906 22.0625 46.3281 22.75 46.3281 23.5V24.125C46.3281 24.8021 46.4219 25.4271 46.6094 26C46.8073 26.5729 47.0833 27.0677 47.4375 27.4844C47.8021 27.901 48.2396 28.224 48.75 28.4531C49.2708 28.6823 49.8594 28.7969 50.5156 28.7969C51.3281 28.7969 52.0833 28.6406 52.7812 28.3281C53.4896 28.0052 54.099 27.5208 54.6094 26.875L56.7969 29.25C56.4427 29.7604 55.9583 30.25 55.3438 30.7188C54.7396 31.1875 54.0104 31.5729 53.1562 31.875C52.3021 32.1667 51.3281 32.3125 50.2344 32.3125ZM90.8906 23.7188V23.3906C90.8906 22.151 91.0677 21.0104 91.4219 19.9688C91.776 18.9167 92.2917 18.0052 92.9688 17.2344C93.6458 16.4635 94.4792 15.8646 95.4688 15.4375C96.4583 15 97.5938 14.7812 98.875 14.7812C100.156 14.7812 101.297 15 102.297 15.4375C103.297 15.8646 104.135 16.4635 104.812 17.2344C105.5 18.0052 106.021 18.9167 106.375 19.9688C106.729 21.0104 106.906 22.151 106.906 23.3906V23.7188C106.906 24.9479 106.729 26.0885 106.375 27.1406C106.021 28.1823 105.5 29.0938 104.812 29.875C104.135 30.6458 103.302 31.2448 102.312 31.6719C101.323 32.099 100.188 32.3125 98.9062 32.3125C97.625 32.3125 96.4844 32.099 95.4844 31.6719C94.4948 31.2448 93.6562 30.6458 92.9688 29.875C92.2917 29.0938 91.776 28.1823 91.4219 27.1406C91.0677 26.0885 90.8906 24.9479 90.8906 23.7188ZM95.3906 23.3906V23.7188C95.3906 24.4271 95.4531 25.0885 95.5781 25.7031C95.7031 26.3177 95.901 26.8594 96.1719 27.3281C96.4531 27.7865 96.8177 28.1458 97.2656 28.4062C97.7135 28.6667 98.2604 28.7969 98.9062 28.7969C99.5312 28.7969 100.068 28.6667 100.516 28.4062C100.964 28.1458 101.323 27.7865 101.594 27.3281C101.865 26.8594 102.062 26.3177 102.188 25.7031C102.323 25.0885 102.391 24.4271 102.391 23.7188V23.3906C102.391 22.7031 102.323 22.0573 102.188 21.4531C102.062 20.8385 101.859 20.2969 101.578 19.8281C101.307 19.349 100.948 18.974 100.5 18.7031C100.052 18.4323 99.5104 18.2969 98.875 18.2969C98.2396 18.2969 97.6979 18.4323 97.25 18.7031C96.8125 18.974 96.4531 19.349 96.1719 19.8281C95.901 20.2969 95.7031 20.8385 95.5781 21.4531C95.4531 22.0573 95.3906 22.7031 95.3906 23.3906ZM108.953 23.7188V23.3906C108.953 22.151 109.13 21.0104 109.484 19.9688C109.839 18.9167 110.354 18.0052 111.031 17.2344C111.708 16.4635 112.542 15.8646 113.531 15.4375C114.521 15 115.656 14.7812 116.938 14.7812C118.219 14.7812 119.359 15 120.359 15.4375C121.359 15.8646 122.198 16.4635 122.875 17.2344C123.562 18.0052 124.083 18.9167 124.438 19.9688C124.792 21.0104 124.969 22.151 124.969 23.3906V23.7188C124.969 24.9479 124.792 26.0885 124.438 27.1406C124.083 28.1823 123.562 29.0938 122.875 29.875C122.198 30.6458 121.365 31.2448 120.375 31.6719C119.385 32.099 118.25 32.3125 116.969 32.3125C115.688 32.3125 114.547 32.099 113.547 31.6719C112.557 31.2448 111.719 30.6458 111.031 29.875C110.354 29.0938 109.839 28.1823 109.484 27.1406C109.13 26.0885 108.953 24.9479 108.953 23.7188ZM113.453 23.3906V23.7188C113.453 24.4271 113.516 25.0885 113.641 25.7031C113.766 26.3177 113.964 26.8594 114.234 27.3281C114.516 27.7865 114.88 28.1458 115.328 28.4062C115.776 28.6667 116.323 28.7969 116.969 28.7969C117.594 28.7969 118.13 28.6667 118.578 28.4062C119.026 28.1458 119.385 27.7865 119.656 27.3281C119.927 26.8594 120.125 26.3177 120.25 25.7031C120.385 25.0885 120.453 24.4271 120.453 23.7188V23.3906C120.453 22.7031 120.385 22.0573 120.25 21.4531C120.125 20.8385 119.922 20.2969 119.641 19.8281C119.37 19.349 119.01 18.974 118.562 18.7031C118.115 18.4323 117.573 18.2969 116.938 18.2969C116.302 18.2969 115.76 18.4323 115.312 18.7031C114.875 18.974 114.516 19.349 114.234 19.8281C113.964 20.2969 113.766 20.8385 113.641 21.4531C113.516 22.0573 113.453 22.7031 113.453 23.3906ZM132.234 7.98438V32H127.734V7.98438H132.234ZM142.891 15.0938L135.547 23.4688L131.609 27.4531L129.969 24.2031L133.094 20.2344L137.484 15.0938H142.891ZM138.219 32L133.219 24.1875L136.328 21.4688L143.406 32H138.219ZM145.047 29.8281C145.047 29.1615 145.276 28.6042 145.734 28.1562C146.203 27.7083 146.823 27.4844 147.594 27.4844C148.365 27.4844 148.979 27.7083 149.438 28.1562C149.906 28.6042 150.141 29.1615 150.141 29.8281C150.141 30.4948 149.906 31.0521 149.438 31.5C148.979 31.9479 148.365 32.1719 147.594 32.1719C146.823 32.1719 146.203 31.9479 145.734 31.5C145.276 31.0521 145.047 30.4948 145.047 29.8281ZM163.25 23.8906H157.453V20.2344H163.25C164.146 20.2344 164.875 20.0885 165.438 19.7969C166 19.4948 166.411 19.0781 166.672 18.5469C166.932 18.0156 167.062 17.4167 167.062 16.75C167.062 16.0729 166.932 15.4427 166.672 14.8594C166.411 14.276 166 13.8073 165.438 13.4531C164.875 13.099 164.146 12.9219 163.25 12.9219H159.078V32H154.391V9.25H163.25C165.031 9.25 166.557 9.57292 167.828 10.2188C169.109 10.8542 170.089 11.7344 170.766 12.8594C171.443 13.9844 171.781 15.2708 171.781 16.7188C171.781 18.1875 171.443 19.4583 170.766 20.5312C170.089 21.6042 169.109 22.4323 167.828 23.0156C166.557 23.599 165.031 23.8906 163.25 23.8906ZM179.234 7.98438V32H174.734V7.98438H179.234ZM189.891 15.0938L182.547 23.4688L178.609 27.4531L176.969 24.2031L180.094 20.2344L184.484 15.0938H189.891ZM185.219 32L180.219 24.1875L183.328 21.4688L190.406 32H185.219Z" fill="#2F327D"/>
<ellipse cx="74" cy="20.5" rx="17" ry="17.5" fill="#30CB70"/>
<path d="M75.7259 21.1047L71.4012 25.0348L69.2133 22.6738L72.8442 19.3741C73.4841 18.7927 73.9347 18.2353 74.1962 17.7021C74.4506 17.1612 74.5344 16.6417 74.4476 16.1435C74.3615 15.6305 74.1083 15.1428 73.688 14.6803C73.2116 14.1561 72.7261 13.8231 72.2314 13.6815C71.7444 13.5329 71.2263 13.5745 70.6769 13.8063C70.1352 14.0312 69.5406 14.4378 68.893 15.0263L66.4878 17.2121L79.3187 31.331L75.8497 34.4835L60.5493 17.6472L66.4235 12.3089C67.4025 11.4192 68.3616 10.7165 69.3006 10.201C70.2473 9.67843 71.1622 9.36082 72.0451 9.24816C72.928 9.1355 73.7748 9.23865 74.5854 9.5576C75.3891 9.86886 76.1482 10.4176 76.8627 11.2039C77.4933 11.8977 77.9167 12.6812 78.1331 13.5543C78.3571 14.4204 78.302 15.3432 77.9676 16.3228C77.6409 17.2953 76.9593 18.2877 75.9228 19.3L75.7259 21.1047ZM82.2905 28.6303L77.1679 33.2855L76.0619 29.3502L79.8315 25.9244C80.4405 25.371 80.8502 24.8228 81.0605 24.2798C81.2638 23.729 81.3038 23.2 81.1806 22.6927C81.0573 22.1854 80.7961 21.712 80.3967 21.2726C79.9484 20.7792 79.4748 20.4284 78.9759 20.2202C78.4847 20.005 77.9704 19.9657 77.433 20.1022C76.8885 20.2311 76.3195 20.5652 75.7259 21.1047L72.3841 24.1416L70.2425 21.7385L74.4053 17.9555L76.0543 18.167C77.0656 17.2198 78.0551 16.6514 79.0228 16.4617C79.9912 16.2572 80.8877 16.3222 81.7124 16.6566C82.5448 16.984 83.2692 17.4868 83.8857 18.1652C84.8665 19.2445 85.4581 20.3678 85.6604 21.5352C85.8557 22.6949 85.6666 23.8731 85.0932 25.0698C84.5276 26.2595 83.5933 27.4463 82.2905 28.6303Z" fill="#2F327D"/>
</g>
<defs>
<clipPath id="clip0_1_1095">
<rect width="206" height="37" fill="white" transform="translate(0 0.5)"/>
</clipPath>
</defs>
</svg>
